<?xml version="1.0" encoding="utf-8"?>
<!-- Generator: Adobe Illustrator 16.0.0, SVG Export Plug-In . SVG Version: 6.00 Build 0)  -->
<!DOCTYPE svg PUBLIC "-//W3C//DTD SVG 1.1//EN" "http://www.w3.org/Graphics/SVG/1.1/DTD/svg11.dtd">
<svg version="1.1" id="레이어_1" xmlns="http://www.w3.org/2000/svg" xmlns:xlink="http://www.w3.org/1999/xlink" x="0px"
	 y="0px" width="9921.26px" height="5669.29px" viewBox="0 0 9921.26 5669.29" enable-background="new 0 0 9921.26 5669.29"
	 xml:space="preserve">
<g>
	<g>
		<path fill="#FFFFFF" d="M4814.6,2891.7c0-37.604,0-75.207,0-112.81c97.809,0,195.617,0,293.425,0c0,37.604,0,75.207,0,112.81
			C5010.217,2891.7,4912.409,2891.7,4814.6,2891.7z M4867.925,2827.244c8.197,8.008,16.537,16.049,24.726,24.243
			c1.869,1.869,2.904,2.176,4.958,0.095c14.588-14.784,29.327-29.42,44.014-44.106c4.859-4.858,4.857-4.864,0.045-9.784
			c-2.331-2.383-4.671-4.758-7.445-7.581c-1.276,1.559-2.079,2.725-3.062,3.712c-11.066,11.111-22.214,22.142-33.2,33.333
			c-2.063,2.102-3.281,2.478-5.409,0.085c-3.899-4.384-8.14-8.463-12.145-12.574
			C4876.194,2818.911,4872.352,2822.784,4867.925,2827.244z M4943.158,2854.059c0.604-5.583,5.43-9.442,11.63-9.606
			c4.297-0.114,8.604,0.078,12.896-0.121c0.953-0.045,2.437-1.001,2.66-1.815c0.459-1.669-0.76-2.499-2.466-2.488
			c-5.099,0.033-10.217-0.207-15.294,0.142c-8.086,0.555-14.455,7.717-14.597,15.945c-0.142,8.213,6.048,15.398,14.3,16.105
			c4.966,0.427,9.984,0.236,14.98,0.318c1.604,0.025,3.16-0.146,3.164-2.247c0.002-2.173-1.629-2.153-3.195-2.151
			c-4.5,0.007-9.001,0.078-13.499-0.023c-5.694-0.131-10.805-4.725-10.395-9.448c1.045-0.051,2.124-0.145,3.203-0.146
			c6.3-0.015,12.602,0.09,18.898-0.069c1.795-0.045,4.845,1.293,4.91-2.08c0.065-3.374-2.963-2.24-4.812-2.268
			C4958.16,2853.993,4950.776,2854.059,4943.158,2854.059z M5036.18,2854.059c1.314-5.979,5.838-9.466,11.977-9.612
			c4.096-0.098,8.195-0.012,12.294-0.033c1.483-0.007,3.226,0.249,3.214-2.05c-0.01-2.037-1.388-2.368-3.07-2.353
			c-4.697,0.047-9.4-0.093-14.091,0.092c-8.192,0.322-15.062,7.458-15.259,15.639c-0.203,8.422,5.959,15.772,14.227,16.471
			c5.064,0.428,10.181,0.23,15.273,0.328c1.564,0.03,2.864-0.323,2.9-2.197c0.043-2.15-1.459-2.227-3.086-2.214
			c-4.598,0.037-9.197,0.104-13.792-0.023c-5.448-0.15-10.317-4.551-10.363-9.433c1.159-0.053,2.335-0.148,3.509-0.151
			c6.996-0.017,13.995,0.062,20.988-0.104c0.93-0.021,2.43-1.108,2.621-1.942c0.381-1.661-0.878-2.425-2.572-2.415
			c-4.797,0.023-9.596,0.001-14.393-0.001C5043.18,2854.058,5039.804,2854.059,5036.18,2854.059z M5001.421,2856.614
			c0-4.498-0.075-8.999,0.03-13.494c0.057-2.361-0.912-3.207-3.21-3.13c-3.396,0.114-6.797,0.006-10.195,0.034
			c-8.45,0.069-15.548,6.859-15.827,15.293c-0.156,4.693-0.031,9.396-0.051,14.094c-0.006,1.509,0.148,2.899,2.117,2.917
			c2.133,0.02,2.297-1.479,2.294-3.092c-0.007-2.8,0.04-5.599,0-8.397c-0.023-1.633,0.655-2.348,2.323-2.334
			c5.297,0.047,10.596,0.049,15.894,0c1.78-0.017,2.546,0.721,2.513,2.499c-0.05,2.798-0.001,5.599,0.002,8.397
			c0.002,1.447-0.045,2.92,2.023,2.95c2.031,0.03,2.109-1.329,2.1-2.843C5001.404,2865.211,5001.423,2860.913,5001.421,2856.614z
			 M5080.01,2859.397c0.107-0.3,0.215-0.6,0.322-0.899c2.956,0,5.912,0.032,8.865-0.012c1.971-0.03,3.357-0.79,3.018-3.079
			c-0.883-5.948-3.459-10.704-9.086-13.565c-5.119-2.603-10.539-1.681-15.876-1.684c-0.493,0-1.411,1.345-1.419,2.072
			c-0.096,9.287-0.113,18.577,0.027,27.863c0.013,0.788,1.296,1.557,1.988,2.335c0.668-0.77,1.824-1.486,1.91-2.316
			c0.258-2.47-0.06-4.998,0.158-7.476c0.123-1.382,0.492-3.46,1.4-3.908c1.924-0.951,3.451,0.447,4.643,2.171
			c2.211,3.199,4.66,6.235,6.859,9.443c1.552,2.267,3.384,2.325,6.084,1.192C5085.834,2867.345,5082.922,2863.372,5080.01,2859.397z
			 M5003.104,2856.135c0.032,0,0.064,0,0.098,0c0,4.389,0.1,8.781-0.04,13.166c-0.077,2.399,1.022,3.274,3.189,3.221
			c2.888-0.071,5.789-0.044,8.657-0.333c7.823-0.786,13.827-6.795,14.494-14.323c0.683-7.722-3.869-14.982-11.367-16.875
			c-3.971-1.001-8.274-0.669-12.425-0.974c-1.958-0.145-2.656,0.756-2.628,2.648
			C5003.148,2847.154,5003.104,2851.645,5003.104,2856.135z M4870.65,2856.193c0-4.396-0.041-8.792,0.018-13.188
			c0.028-2.126-0.775-3.097-3.011-3.014c-3.192,0.121-6.398-0.069-9.586,0.096c-0.938,0.049-2.288,0.607-2.683,1.345
			c-5.042,9.405-9.943,18.888-14.883,28.348c-1.018,1.948,0.122,2.843,1.73,2.562c1.14-0.2,2.464-1.252,3.064-2.293
			c2.438-4.234,4.776-8.54,6.853-12.959c1.267-2.695,2.697-3.13,4.981-1.376c0.312,0.239,0.686,0.436,1.062,0.546
			c6.544,1.923,9.647,5.955,8.185,12.975c-0.337,1.62,0.245,3.109,2.251,3.135c2.006,0.024,2.018-1.536,2.019-2.986
			C4870.653,2864.985,4870.651,2860.589,4870.65,2856.193z M4914.053,2855.903c-0.01,0-0.02,0-0.03,0
			c0,4.489,0.062,8.979-0.025,13.467c-0.045,2.376,1.126,3.177,3.294,3.17c6.686-0.022,13.372,0.013,20.058-0.02
			c1.483-0.008,3.125,0.093,3.148-2.187c0.023-2.27-1.503-2.208-3.064-2.193c-1.497,0.014-2.995,0.034-4.49-0.005
			c-4.655-0.12-9.309-0.268-13.962-0.404c-0.176-4.646-0.402-9.294-0.511-13.943c-0.087-3.689-0.008-7.384-0.048-11.076
			c-0.016-1.526-0.471-3.074-2.341-2.549c-0.85,0.239-1.895,1.654-1.937,2.578
			C4913.941,2847.12,4914.053,2851.515,4914.053,2855.903z M4911.902,2873.043c-0.595-3.32-2.263-3.95-4.701-3.913
			c-7.093,0.109-14.188,0.032-21.282,0.043c-1.797,0.002-3.614-0.092-5.381,0.154c-0.699,0.098-1.769,0.967-1.809,1.543
			c-0.056,0.816,0.489,1.928,1.145,2.465c0.596,0.487,1.682,0.502,2.553,0.506c8.493,0.035,16.986,0.057,25.479-0.012
			C4909.204,2873.819,4910.498,2873.332,4911.902,2873.043z M4876.758,2856.599c-0.004,0-0.007,0-0.011,0
			c0-4.695,0.113-9.396-0.103-14.082c-0.039-0.854-1.417-1.646-2.176-2.467c-0.708,0.75-2.022,1.489-2.034,2.248
			c-0.141,9.189-0.152,18.383,0.013,27.57c0.016,0.858,1.346,2.211,2.272,2.42c1.67,0.377,2.058-1.025,2.048-2.502
			C4876.738,2865.391,4876.758,2860.994,4876.758,2856.599z"/>
		<path fill-rule="evenodd" clip-rule="evenodd" d="M4867.925,2827.244c4.427-4.46,8.27-8.333,12.482-12.577
			c4.005,4.111,8.246,8.19,12.145,12.574c2.128,2.392,3.345,2.016,5.409-0.085c10.986-11.191,22.134-22.222,33.2-33.333
			c0.983-0.987,1.786-2.153,3.062-3.712c2.774,2.823,5.114,5.198,7.445,7.581c4.812,4.919,4.814,4.925-0.045,9.784
			c-14.688,14.686-29.426,29.322-44.014,44.106c-2.054,2.081-3.089,1.774-4.958-0.095
			C4884.462,2843.293,4876.122,2835.252,4867.925,2827.244z"/>
		<path fill-rule="evenodd" clip-rule="evenodd" d="M4943.158,2854.059c7.619,0,15.002-0.065,22.383,0.046
			c1.85,0.027,4.878-1.106,4.812,2.268c-0.065,3.373-3.115,2.035-4.91,2.08c-6.296,0.159-12.598,0.055-18.898,0.069
			c-1.079,0.002-2.157,0.096-3.203,0.146c-0.411,4.724,4.7,9.317,10.395,9.448c4.498,0.102,8.999,0.03,13.499,0.023
			c1.566-0.002,3.197-0.021,3.195,2.151c-0.004,2.102-1.561,2.272-3.164,2.247c-4.996-0.082-10.014,0.108-14.98-0.318
			c-8.252-0.707-14.442-7.893-14.3-16.105c0.142-8.229,6.511-15.391,14.597-15.945c5.077-0.349,10.195-0.108,15.294-0.142
			c1.706-0.011,2.925,0.819,2.466,2.488c-0.224,0.814-1.707,1.771-2.66,1.815c-4.291,0.199-8.598,0.007-12.896,0.121
			C4948.587,2844.616,4943.762,2848.476,4943.158,2854.059z"/>
		<path fill-rule="evenodd" clip-rule="evenodd" d="M5036.18,2854.059c3.624,0,7-0.001,10.377,0
			c4.797,0.002,9.596,0.024,14.393,0.001c1.694-0.01,2.953,0.754,2.572,2.415c-0.191,0.834-1.691,1.921-2.621,1.942
			c-6.993,0.166-13.992,0.088-20.988,0.104c-1.174,0.003-2.35,0.099-3.509,0.151c0.046,4.882,4.915,9.282,10.363,9.433
			c4.595,0.128,9.194,0.061,13.792,0.023c1.627-0.013,3.129,0.063,3.086,2.214c-0.036,1.874-1.336,2.228-2.9,2.197
			c-5.093-0.098-10.209,0.1-15.273-0.328c-8.268-0.698-14.43-8.049-14.227-16.471c0.197-8.181,7.066-15.316,15.259-15.639
			c4.69-0.185,9.394-0.045,14.091-0.092c1.683-0.016,3.061,0.315,3.07,2.353c0.012,2.299-1.73,2.043-3.214,2.05
			c-4.099,0.021-8.198-0.064-12.294,0.033C5042.018,2844.593,5037.494,2848.08,5036.18,2854.059z"/>
		<path fill-rule="evenodd" clip-rule="evenodd" d="M5001.422,2856.614c0.001,4.299-0.018,8.597,0.012,12.895
			c0.01,1.514-0.068,2.873-2.1,2.843c-2.068-0.03-2.021-1.503-2.023-2.95c-0.003-2.799-0.052-5.6-0.002-8.397
			c0.033-1.778-0.732-2.516-2.513-2.499c-5.298,0.049-10.597,0.047-15.894,0c-1.668-0.014-2.347,0.701-2.323,2.334
			c0.04,2.799-0.007,5.598,0,8.397c0.003,1.613-0.161,3.111-2.294,3.092c-1.969-0.018-2.123-1.408-2.117-2.917
			c0.02-4.698-0.105-9.4,0.051-14.094c0.279-8.434,7.377-15.224,15.827-15.293c3.398-0.028,6.8,0.08,10.195-0.034
			c2.298-0.077,3.267,0.769,3.21,3.13C5001.346,2847.615,5001.421,2852.116,5001.422,2856.614z M4977.233,2854.036
			c6.202,0,12.183,0.056,18.159-0.084c0.636-0.015,1.659-1.096,1.801-1.82c1.301-6.613,0.375-7.749-6.151-7.688
			c-1.888,0.018-3.818,0.091-5.649,0.5C4981.142,2845.895,4977.909,2849.441,4977.233,2854.036z"/>
		<path fill-rule="evenodd" clip-rule="evenodd" d="M5080.01,2859.397c2.912,3.975,5.824,7.947,8.895,12.138
			c-2.7,1.133-4.532,1.074-6.084-1.192c-2.199-3.208-4.648-6.244-6.859-9.443c-1.191-1.724-2.719-3.122-4.643-2.171
			c-0.908,0.448-1.277,2.526-1.4,3.908c-0.218,2.478,0.1,5.006-0.158,7.476c-0.086,0.83-1.242,1.547-1.91,2.316
			c-0.692-0.778-1.976-1.547-1.988-2.335c-0.141-9.286-0.123-18.576-0.027-27.863c0.008-0.728,0.926-2.072,1.419-2.072
			c5.337,0.003,10.757-0.919,15.876,1.684c5.627,2.861,8.203,7.617,9.086,13.565c0.34,2.289-1.047,3.049-3.018,3.079
			c-2.953,0.044-5.909,0.012-8.865,0.012C5080.225,2858.798,5080.117,2859.098,5080.01,2859.397z M5087.055,2854.024
			c0.079-0.757,0.16-0.968,0.111-1.144c-1.758-6.339-9.731-10.581-15.812-8.258c-0.666,0.254-1.269,1.729-1.216,2.597
			c0.137,2.248,0.651,4.477,1.045,6.706c0.011,0.063,0.368,0.094,0.565,0.095
			C5076.816,2854.024,5081.887,2854.024,5087.055,2854.024z"/>
		<path fill-rule="evenodd" clip-rule="evenodd" d="M5003.104,2856.135c0-4.49,0.045-8.98-0.021-13.47
			c-0.028-1.893,0.67-2.793,2.628-2.648c4.15,0.305,8.454-0.027,12.425,0.974c7.498,1.893,12.05,9.153,11.367,16.875
			c-0.667,7.528-6.671,13.537-14.494,14.323c-2.868,0.289-5.77,0.262-8.657,0.333c-2.167,0.054-3.267-0.821-3.189-3.221
			c0.14-4.385,0.04-8.777,0.04-13.166C5003.168,2856.135,5003.136,2856.135,5003.104,2856.135z M5007.555,2856.086
			c-0.002,0-0.006,0-0.009,0c0,1.997,0,3.995,0,5.993c0,6.598,0.335,6.887,6.93,5.973c5.119-0.71,9.294-4.414,10.317-9.154
			c1.138-5.271-0.518-10.413-5.201-12.541c-3.181-1.445-7.082-1.359-10.684-1.741c-0.37-0.039-1.252,1.4-1.291,2.184
			C5007.466,2849.888,5007.555,2852.989,5007.555,2856.086z"/>
		<path fill-rule="evenodd" clip-rule="evenodd" d="M4870.65,2856.193c0,4.396,0.003,8.792-0.001,13.188
			c-0.001,1.45-0.013,3.011-2.019,2.986c-2.007-0.025-2.588-1.515-2.251-3.135c1.462-7.02-1.641-11.052-8.185-12.975
			c-0.376-0.11-0.75-0.307-1.062-0.546c-2.284-1.754-3.714-1.319-4.981,1.376c-2.077,4.419-4.416,8.725-6.853,12.959
			c-0.6,1.041-1.924,2.093-3.064,2.293c-1.608,0.281-2.748-0.613-1.73-2.562c4.94-9.46,9.841-18.942,14.883-28.348
			c0.395-0.737,1.746-1.296,2.683-1.345c3.188-0.165,6.394,0.025,9.586-0.096c2.236-0.083,3.039,0.888,3.011,3.014
			C4870.609,2847.401,4870.65,2851.798,4870.65,2856.193z M4855.963,2850.419c3.37,1.729,6.582,3.377,10.114,5.188
			c0-3.937,0-7.403,0-10.822C4859.274,2843.662,4858.902,2843.861,4855.963,2850.419z"/>
		<path fill-rule="evenodd" clip-rule="evenodd" d="M4914.053,2855.903c0-4.389-0.112-8.783,0.091-13.162
			c0.042-0.924,1.087-2.339,1.937-2.578c1.87-0.525,2.325,1.022,2.341,2.549c0.04,3.692-0.039,7.387,0.048,11.076
			c0.109,4.649,0.335,9.297,0.511,13.943c4.654,0.137,9.308,0.284,13.962,0.404c1.496,0.039,2.994,0.019,4.49,0.005
			c1.561-0.015,3.087-0.076,3.064,2.193c-0.023,2.279-1.665,2.179-3.148,2.187c-6.686,0.032-13.373-0.003-20.058,0.02
			c-2.168,0.007-3.34-0.794-3.294-3.17c0.086-4.487,0.025-8.978,0.025-13.467
			C4914.033,2855.903,4914.043,2855.903,4914.053,2855.903z"/>
		<path fill-rule="evenodd" clip-rule="evenodd" d="M4911.902,2873.043c-1.404,0.289-2.698,0.776-3.996,0.786
			c-8.493,0.068-16.986,0.047-25.479,0.012c-0.871-0.004-1.958-0.019-2.553-0.506c-0.656-0.537-1.2-1.648-1.145-2.465
			c0.04-0.576,1.109-1.445,1.809-1.543c1.767-0.246,3.584-0.152,5.381-0.154c7.094-0.011,14.189,0.066,21.282-0.043
			C4909.64,2869.093,4911.307,2869.723,4911.902,2873.043z"/>
		<path fill-rule="evenodd" clip-rule="evenodd" d="M4876.758,2856.599c0,4.396-0.02,8.792,0.011,13.188
			c0.01,1.477-0.378,2.879-2.048,2.502c-0.926-0.209-2.257-1.562-2.272-2.42c-0.166-9.188-0.154-18.381-0.013-27.57
			c0.012-0.759,1.325-1.498,2.034-2.248c0.759,0.821,2.137,1.613,2.176,2.467c0.215,4.686,0.103,9.387,0.103,14.082
			C4876.75,2856.599,4876.754,2856.599,4876.758,2856.599z"/>
		<path fill-rule="evenodd" clip-rule="evenodd" fill="#FFFFFF" d="M4977.233,2854.036c0.676-4.595,3.908-8.142,8.159-9.092
			c1.831-0.409,3.762-0.482,5.649-0.5c6.526-0.062,7.452,1.074,6.151,7.688c-0.142,0.725-1.165,1.806-1.801,1.82
			C4989.416,2854.092,4983.436,2854.036,4977.233,2854.036z"/>
		<path fill-rule="evenodd" clip-rule="evenodd" fill="#FFFFFF" d="M5087.055,2854.024c-5.168,0-10.238,0-15.307-0.004
			c-0.197-0.001-0.555-0.031-0.565-0.095c-0.394-2.229-0.908-4.458-1.045-6.706c-0.053-0.867,0.55-2.343,1.216-2.597
			c6.081-2.323,14.055,1.919,15.812,8.258C5087.215,2853.057,5087.134,2853.268,5087.055,2854.024z"/>
		<path fill-rule="evenodd" clip-rule="evenodd" fill="#FFFFFF" d="M5007.555,2856.086c0-3.097-0.089-6.198,0.062-9.287
			c0.039-0.783,0.921-2.223,1.291-2.184c3.602,0.382,7.503,0.296,10.684,1.741c4.684,2.128,6.339,7.271,5.201,12.541
			c-1.023,4.74-5.198,8.444-10.317,9.154c-6.595,0.914-6.93,0.625-6.93-5.973c0-1.998,0-3.996,0-5.993
			C5007.549,2856.086,5007.553,2856.086,5007.555,2856.086z"/>
		<path fill-rule="evenodd" clip-rule="evenodd" fill="#FFFFFF" d="M4855.963,2850.419c2.939-6.558,3.311-6.757,10.114-5.635
			c0,3.419,0,6.886,0,10.822C4862.545,2853.796,4859.333,2852.147,4855.963,2850.419z"/>
	</g>
</g>
</svg>
